<mxfile host="app.diagrams.net" modified="2021-06-04T12:26:41.625Z" agent="5.0 (Windows NT 10.0; WOW64) AppleWebKit/537.36 (KHTML, like Gecko) Chrome/86.0.4240.198 Safari/537.36" etag="Ia7DaQmoGT7u8t4k1N4S" version="14.7.6" type="github">
  <diagram id="9Syi91soJP7kXuhai-Lp" name="Page-1">
    <mxGraphModel dx="1036" dy="575" grid="1" gridSize="10" guides="1" tooltips="1" connect="1" arrows="1" fold="1" page="1" pageScale="1" pageWidth="827" pageHeight="1169" math="0" shadow="0">
      <root>
        <mxCell id="0" />
        <mxCell id="1" parent="0" />
        <mxCell id="Co0ptf1hM5kubsSOM7J8-4" value="" style="edgeStyle=orthogonalEdgeStyle;rounded=0;orthogonalLoop=1;jettySize=auto;html=1;" edge="1" parent="1" source="Co0ptf1hM5kubsSOM7J8-1" target="Co0ptf1hM5kubsSOM7J8-3">
          <mxGeometry relative="1" as="geometry" />
        </mxCell>
        <mxCell id="Co0ptf1hM5kubsSOM7J8-1" value="区块" style="rounded=0;whiteSpace=wrap;html=1;" vertex="1" parent="1">
          <mxGeometry x="60" y="280" width="120" height="60" as="geometry" />
        </mxCell>
        <mxCell id="Co0ptf1hM5kubsSOM7J8-3" value="区块" style="rounded=0;whiteSpace=wrap;html=1;" vertex="1" parent="1">
          <mxGeometry x="260" y="280" width="110" height="60" as="geometry" />
        </mxCell>
      </root>
    </mxGraphModel>
  </diagram>
</mxfile>
